<?xml version="1.0" standalone="no"?>
<!DOCTYPE svg PUBLIC "-//W3C//DTD SVG 20010904//EN"
 "http://www.w3.org/TR/2001/REC-SVG-20010904/DTD/svg10.dtd">
<svg version="1.0" xmlns="http://www.w3.org/2000/svg"
 width="500.000000pt" height="500.000000pt" viewBox="0 0 500.000000 500.000000"
 preserveAspectRatio="xMidYMid meet">

<g transform="translate(0.000000,500.000000) scale(0.100000,-0.100000)"
fill="#000000" stroke="none">
<path d="M2280 4983 c-168 -14 -421 -73 -620 -145 -112 -41 -311 -137 -399
-192 l-44 -28 41 -41 42 -41 37 22 c231 138 507 238 788 286 190 33 338 40
530 26 258 -19 516 -80 761 -181 30 -12 34 -10 73 20 23 19 40 38 39 43 -4 11
-133 68 -245 108 -131 47 -356 98 -503 115 -122 14 -379 18 -500 8z"/>
<path d="M3805 4772 c-171 -82 -543 -421 -775 -708 -98 -122 -113 -152 -118
-235 -9 -154 118 -370 304 -519 104 -83 183 -166 249 -265 69 -104 88 -96 30
12 -57 106 -121 190 -228 298 -163 165 -192 210 -217 340 -33 170 85 379 380
676 154 155 277 255 384 309 57 29 67 32 93 21 65 -27 138 -180 180 -374 27
-123 23 -440 -6 -602 -39 -216 -101 -429 -180 -615 -34 -82 -36 -90 -20 -90
17 0 115 218 164 363 153 460 150 957 -9 1264 -24 46 -74 105 -109 127 -42 27
-61 26 -122 -2z"/>
<path d="M922 4614 c-54 -37 -89 -235 -78 -442 4 -68 20 -221 36 -340 17 -119
30 -220 30 -224 0 -5 -9 -8 -20 -8 -38 0 -115 -44 -163 -93 -187 -191 -217
-624 -61 -879 l34 -56 -14 -59 c-19 -76 -23 -125 -11 -129 6 -2 26 25 45 61
19 36 38 65 41 65 16 0 16 -16 -1 -48 -79 -154 -116 -322 -92 -410 12 -42 26
-28 38 40 17 94 29 112 38 58 20 -125 132 -257 284 -334 86 -43 91 -32 19 43
-144 153 -204 344 -166 533 l11 55 53 6 c56 6 115 31 161 71 26 21 32 22 49
10 28 -21 53 -17 71 11 21 32 5 55 -36 55 -33 0 -60 9 -60 20 0 4 17 19 37 31
34 21 51 24 143 24 123 0 200 -22 200 -57 0 -18 -4 -20 -41 -14 -48 8 -69 -5
-69 -40 0 -16 8 -28 24 -36 21 -9 33 -7 72 13 27 13 57 36 68 51 l20 28 -25
26 c-45 49 -93 64 -211 64 -60 0 -108 3 -108 6 0 3 9 36 20 72 11 37 24 94 28
127 7 59 7 60 41 63 46 5 124 -23 188 -65 43 -28 53 -40 53 -62 0 -46 38 -182
71 -251 65 -138 166 -233 283 -265 85 -23 157 -14 242 30 l64 33 72 -70 c102
-98 144 -131 237 -188 l82 -49 -43 -29 c-52 -35 -110 -66 -160 -86 -78 -31
-43 -45 129 -53 114 -5 231 2 418 28 176 24 415 76 415 90 0 12 9 9 -175 49
-333 71 -690 219 -899 372 -8 5 49 108 60 108 2 0 27 -14 55 -31 84 -49 179
-95 255 -122 123 -44 287 -57 334 -27 13 9 13 11 0 20 -8 5 -26 10 -40 10 -42
0 -141 29 -205 59 -86 41 -192 121 -174 132 25 15 142 10 212 -10 87 -25 252
-104 354 -170 44 -28 83 -51 86 -51 33 0 -69 130 -167 212 -145 121 -316 188
-598 233 -60 9 -44 25 25 25 144 0 384 -53 532 -117 120 -51 196 -103 278
-186 37 -38 71 -66 75 -63 3 4 1 15 -4 24 -6 9 -28 49 -49 87 -154 282 -383
519 -532 550 -43 9 -42 -2 3 -72 19 -30 32 -59 27 -64 -8 -8 -351 -109 -370
-109 -6 0 -13 46 -16 103 -12 188 -80 358 -185 463 -33 32 -51 59 -46 64 13
13 150 88 176 96 20 6 19 4 -5 -27 -31 -42 -80 -139 -73 -146 2 -3 67 -15 143
-28 218 -38 398 -100 557 -193 88 -52 213 -169 261 -244 29 -46 45 -59 45 -38
0 23 -65 176 -98 234 -20 34 -77 102 -126 151 -136 135 -279 203 -481 228
l-97 12 43 49 c51 58 124 107 197 130 54 18 68 35 30 37 -99 4 -183 -11 -331
-58 -103 -32 -174 -68 -256 -128 l-64 -47 -48 14 -49 13 79 62 c42 34 114 85
159 114 45 28 82 56 82 60 0 14 -71 11 -150 -6 -110 -23 -230 -77 -413 -187
-92 -55 -170 -98 -172 -96 -2 2 -18 57 -35 123 -17 66 -35 124 -39 128 -24 25
-111 -64 -148 -150 -36 -85 -59 -292 -34 -308 5 -3 21 32 36 77 31 96 91 228
103 228 5 0 21 -48 36 -107 15 -60 31 -112 36 -117 5 -5 28 7 55 30 83 70 179
135 250 168 107 51 111 51 78 11 -16 -19 -61 -50 -100 -70 -91 -45 -159 -118
-213 -228 -44 -89 -80 -216 -80 -281 0 -23 -3 -51 -6 -63 l-6 -23 -29 20 c-48
35 -121 63 -179 69 l-55 6 -7 82 c-4 45 -19 117 -32 160 -14 43 -19 70 -12 61
26 -35 33 -18 38 90 5 130 31 196 107 272 27 27 45 52 40 56 -16 10 -104 -25
-171 -67 -35 -22 -86 -65 -113 -95 l-51 -55 -54 25 c-30 14 -65 26 -77 26 -15
0 -24 7 -27 23 -24 117 -28 762 -5 842 12 44 17 50 44 53 33 3 92 -31 156 -90
81 -76 227 -275 344 -472 32 -54 65 -100 72 -103 34 -13 128 82 154 155 17 48
4 51 -39 9 -54 -53 -70 -49 -127 31 -214 297 -438 526 -554 567 -33 11 -42 11
-59 -1z m270 -1131 c3 -21 8 -47 13 -58 4 -11 -6 -1 -24 23 -26 35 -30 46 -20
58 19 23 27 17 31 -23z"/>
<path d="M4286 4098 c4 -57 12 -91 24 -108 221 -299 350 -583 426 -940 43
-201 57 -534 29 -731 -42 -306 -131 -579 -270 -830 -32 -58 -47 -98 -50 -130
-3 -53 -13 -74 -66 -144 -42 -55 -107 -113 -184 -164 -27 -19 -61 -46 -75 -60
-50 -53 -213 -192 -288 -245 -229 -160 -475 -278 -715 -342 -98 -26 -116 -35
-193 -92 -46 -35 -84 -68 -84 -74 0 -30 369 65 575 149 758 308 1309 999 1449
1815 57 328 40 681 -49 1012 -65 242 -155 450 -288 661 -89 141 -218 305 -239
305 -5 0 -6 -37 -2 -82z"/>
<path d="M637 4101 c-255 -315 -433 -713 -501 -1121 -33 -200 -38 -489 -11
-690 11 -76 26 -159 35 -190 6 -19 27 -95 46 -169 40 -155 80 -257 167 -429
39 -79 66 -122 75 -120 8 2 23 30 33 62 l18 59 -38 76 c-95 189 -171 429 -217
686 -26 142 -26 516 -1 665 70 403 201 719 426 1025 47 64 51 74 51 126 0 60
-7 89 -20 89 -4 0 -33 -31 -63 -69z"/>
<path d="M3422 4045 c-153 -77 -260 -170 -297 -258 -16 -39 -20 -103 -7 -111
10 -6 460 59 469 68 20 20 -81 35 -245 35 l-103 1 12 23 c26 47 85 110 180
188 137 114 135 126 -9 54z"/>
<path d="M1160 4055 c0 -8 4 -15 10 -15 5 0 37 -27 70 -59 69 -68 75 -93 29
-119 -81 -45 -132 -92 -116 -108 3 -3 27 6 54 19 58 30 146 57 185 57 38 0 44
21 23 78 -23 61 -98 136 -150 151 -58 16 -105 14 -105 -4z"/>
<path d="M2801 3998 c-66 -72 -115 -102 -229 -138 -48 -16 -86 -32 -85 -37 7
-24 198 -20 264 6 32 13 75 55 94 92 19 36 31 124 19 131 -5 3 -33 -21 -63
-54z"/>
<path d="M1806 4030 c-50 -20 -146 -103 -146 -127 0 -7 2 -13 5 -13 25 0 245
133 245 148 0 18 -47 14 -104 -8z"/>
<path d="M2020 3954 c-168 -30 -324 -71 -358 -92 -10 -7 -6 -25 19 -83 17 -41
32 -75 34 -77 1 -1 49 20 106 47 198 93 382 140 572 145 59 2 108 7 108 12 4
21 -147 46 -301 49 -85 2 -166 1 -180 -1z"/>
<path d="M3265 3606 c-123 -41 -124 -43 -75 -105 37 -45 84 -73 165 -96 33 -9
77 -27 97 -41 44 -28 48 -29 48 -10 0 20 -109 118 -158 141 -41 20 -54 35 -29
35 26 0 221 77 225 88 3 9 -24 12 -100 12 -80 -1 -118 -6 -173 -24z"/>
<path d="M3926 2908 c-80 -46 -236 -85 -348 -87 -21 -1 -38 -5 -38 -11 0 -5
33 -25 74 -44 90 -41 197 -109 289 -183 38 -30 71 -53 74 -50 7 8 -74 125
-126 180 -27 29 -41 51 -35 55 6 4 34 22 62 40 44 29 92 84 92 106 0 9 -23 7
-44 -6z"/>
<path d="M3314 2824 c15 -58 146 -337 199 -424 31 -49 53 -91 49 -94 -54 -30
-283 -38 -480 -16 -63 6 -117 9 -120 5 -12 -12 45 -52 105 -75 175 -66 451
-74 653 -19 117 31 116 27 29 116 -106 110 -169 185 -303 365 -125 169 -143
188 -132 142z"/>
<path d="M3620 2611 c0 -6 18 -30 39 -55 194 -224 348 -494 391 -685 18 -84
35 -100 43 -44 6 37 4 59 -8 153 -11 76 -51 203 -92 288 -44 92 -39 100 36 57
50 -29 60 -26 40 11 -38 71 -188 177 -352 250 -83 36 -97 40 -97 25z"/>
<path d="M1286 2554 c-3 -9 -6 -45 -6 -82 l0 -66 -30 29 c-36 34 -40 17 -9
-35 30 -50 60 -80 79 -80 27 0 103 121 87 137 -4 4 -20 -6 -36 -21 -16 -16
-34 -25 -40 -22 -6 4 -11 34 -11 66 0 61 -7 90 -20 90 -4 0 -11 -7 -14 -16z"/>
<path d="M1297 2235 c-4 -38 -16 -72 -38 -108 -76 -122 -109 -177 -109 -182 0
-29 90 50 134 117 10 15 29 31 44 36 48 17 79 4 494 -211 47 -24 73 -30 145
-34 92 -4 183 12 190 34 4 10 -17 11 -89 6 -122 -8 -170 7 -319 95 -156 93
-253 145 -319 171 -49 19 -58 28 -80 73 -14 29 -30 54 -36 55 -7 2 -13 -18
-17 -52z"/>
<path d="M3796 2098 c-95 -170 -184 -261 -310 -318 -37 -17 -64 -35 -61 -40
11 -17 103 -11 168 11 34 11 103 42 154 69 105 55 98 59 109 -61 5 -48 2 -87
-11 -138 -9 -40 -15 -75 -11 -78 11 -11 68 50 88 94 26 58 33 157 18 250 -12
79 -71 268 -88 285 -5 5 -27 -23 -56 -74z"/>
<path d="M3575 2019 c-160 -88 -526 -222 -952 -349 -73 -22 -93 -43 -50 -53
173 -41 470 -32 756 23 29 5 55 10 57 10 2 0 4 4 4 9 0 6 -21 13 -47 16 -105
13 -189 28 -200 34 -8 4 60 42 157 89 160 78 261 143 338 215 61 59 37 61 -63
6z"/>
<path d="M715 1860 c-9 -15 2 -125 19 -188 29 -109 126 -225 226 -273 27 -13
50 -26 50 -30 0 -3 -24 -13 -54 -22 -57 -18 -159 -80 -190 -116 -35 -39 -8
-43 95 -15 296 81 421 93 574 54 45 -11 83 -16 88 -11 10 10 -131 102 -217
141 -34 15 -99 40 -146 54 -104 32 -173 70 -237 133 -48 47 -122 153 -163 232
-22 44 -36 56 -45 41z"/>
<path d="M1190 1806 c0 -17 80 -162 133 -241 55 -81 153 -177 211 -205 42 -20
58 -22 125 -17 110 9 290 69 504 171 127 60 152 92 39 50 -222 -84 -424 -142
-528 -151 -62 -5 -79 -3 -117 16 -57 28 -187 164 -282 294 -69 95 -85 111 -85
83z"/>
<path d="M3626 1632 c-122 -115 -251 -199 -390 -253 -80 -31 -95 -49 -41 -49
76 0 281 66 373 120 18 11 35 20 37 20 8 0 -36 -104 -68 -160 -42 -75 -184
-214 -287 -282 -151 -100 -270 -151 -527 -228 -144 -42 -191 -69 -113 -62 133
11 361 62 519 116 317 109 523 297 592 541 17 61 19 289 2 306 -8 8 -33 -10
-97 -69z"/>
<path d="M3987 1563 c-3 -5 -8 -28 -12 -53 -20 -120 -114 -264 -308 -468 -38
-41 -65 -77 -61 -82 5 -4 66 10 136 31 270 82 458 194 549 325 34 50 26 62
-22 30 -55 -37 -129 -74 -202 -101 -37 -14 -69 -25 -72 -25 -2 0 8 26 22 58
20 43 27 74 27 127 1 92 -36 193 -57 158z"/>
<path d="M2840 1459 c-58 -10 -181 -39 -275 -64 -93 -25 -227 -60 -297 -78
-74 -18 -128 -37 -128 -44 0 -20 103 -94 172 -123 95 -41 192 -53 360 -47 138
5 259 21 382 52 83 22 308 93 326 105 32 20 -2 19 -116 -5 -225 -46 -409 -62
-514 -46 -105 16 -152 30 -144 42 19 31 228 106 442 159 123 30 146 40 123 54
-25 16 -232 12 -331 -5z"/>
<path d="M580 1290 c0 -35 21 -118 46 -180 50 -126 157 -247 298 -335 42 -26
76 -48 76 -49 0 -2 -30 1 -67 6 -76 10 -186 38 -262 67 -63 24 -69 7 -13 -37
137 -108 405 -156 732 -132 287 21 405 49 278 65 -295 36 -559 127 -753 258
-88 60 -224 201 -279 290 -26 42 -50 77 -52 77 -2 0 -4 -13 -4 -30z"/>
<path d="M1125 1154 c-215 -28 -253 -55 -94 -65 52 -4 126 -14 164 -23 80 -19
215 -82 263 -123 l34 -28 -69 0 c-97 0 -185 -14 -180 -28 5 -18 93 -44 255
-77 205 -40 262 -46 262 -27 0 8 -18 51 -40 94 -108 216 -319 314 -595 277z"/>
<path d="M1807 1103 c2 -21 16 -81 29 -133 63 -248 196 -398 359 -408 62 -3
146 15 152 34 2 6 -17 17 -43 23 -132 34 -248 144 -285 274 -7 25 -6 28 9 22
69 -27 256 -32 377 -11 132 24 145 28 145 42 0 8 -6 14 -12 14 -48 0 -268 24
-338 36 -126 21 -271 69 -330 109 -29 19 -56 35 -60 35 -5 0 -6 -17 -3 -37z"/>
<path d="M3165 694 c-256 -30 -510 -159 -706 -360 -81 -84 -82 -84 -103 -66
-12 10 -46 34 -76 53 -231 149 -468 226 -664 217 -40 -2 -71 -8 -73 -14 -2 -7
23 -18 60 -27 199 -50 458 -208 713 -434 40 -35 76 -63 80 -63 5 1 29 26 54
56 46 57 207 217 275 276 125 106 338 254 458 318 26 14 47 31 47 37 0 13 -6
13 -65 7z"/>
</g>
</svg>
